<mxfile host="Electron" modified="2024-02-24T10:23:17.701Z" agent="Mozilla/5.0 (Windows NT 10.0; Win64; x64) AppleWebKit/537.36 (KHTML, like Gecko) draw.io/22.1.11 Chrome/114.0.5735.289 Electron/25.9.8 Safari/537.36" etag="4Tf33us4FmqByCfN5JHn" version="22.1.11" type="device">
  <diagram name="페이지-1" id="j15THbkSNArLl6au_WYi">
    <mxGraphModel dx="1235" dy="-411" grid="1" gridSize="10" guides="1" tooltips="1" connect="1" arrows="1" fold="1" page="1" pageScale="1" pageWidth="827" pageHeight="1169" math="0" shadow="0">
      <root>
        <mxCell id="0" />
        <mxCell id="1" parent="0" />
        <mxCell id="b49IRltXHcFOzs0AzJ2W-33" value="1" style="rounded=0;whiteSpace=wrap;html=1;verticalAlign=bottom;" parent="1" vertex="1">
          <mxGeometry x="120" y="1400" width="40" height="40" as="geometry" />
        </mxCell>
        <mxCell id="b49IRltXHcFOzs0AzJ2W-34" value="10" style="rounded=0;whiteSpace=wrap;html=1;verticalAlign=bottom;" parent="1" vertex="1">
          <mxGeometry x="160" y="1200" width="40" height="240" as="geometry" />
        </mxCell>
        <mxCell id="wRR3NzrS5lJ_B90dUemb-3" value="1" style="rounded=0;whiteSpace=wrap;html=1;verticalAlign=bottom;" vertex="1" parent="1">
          <mxGeometry y="1400" width="40" height="40" as="geometry" />
        </mxCell>
        <mxCell id="wRR3NzrS5lJ_B90dUemb-4" value="" style="endArrow=classic;html=1;rounded=0;" edge="1" parent="1">
          <mxGeometry width="50" height="50" relative="1" as="geometry">
            <mxPoint x="50" y="1420" as="sourcePoint" />
            <mxPoint x="110" y="1420" as="targetPoint" />
          </mxGeometry>
        </mxCell>
      </root>
    </mxGraphModel>
  </diagram>
</mxfile>
